<?xml version="1.0" encoding="utf-8"?>
<!-- Generator: Adobe Illustrator 24.0.2, SVG Export Plug-In . SVG Version: 6.00 Build 0)  -->
<svg version="1.1" id="Layer_1" xmlns="http://www.w3.org/2000/svg" xmlns:xlink="http://www.w3.org/1999/xlink" x="0px" y="0px"
	 viewBox="0 0 2475.8 583.4" style="enable-background:new 0 0 2475.8 583.4;" xml:space="preserve">
<style type="text/css">
	.st0{fill:none;}
	.st1{fill:#FFFFFF;}
	.st2{fill:#CC3333;}
</style>
<g>
	<polygon class="st0" points="2079.9,359 2083.4,359 2083.4,359 	"/>
	<g>
		<path class="st1" d="M797.4,516.2c7.4,0,13.3-2,17.6-5.9c4.3-4,6.4-9.1,6.4-15.3c0-2.6-0.5-5.1-1.4-7.4c-1-2.3-2.7-4.6-5.2-7.1
			s-6-5.2-10.4-8.1s-10.1-6.4-17.1-10.4c-2.6-1.6-5.7-3.4-9.2-5.7c-3.5-2.2-6.7-4.9-9.7-8.1s-5.6-6.9-7.6-11.2
			c-2.1-4.3-3.2-9.1-3.2-14.7c0-4.7,0.8-9,2.5-13s4.3-7.5,7.8-10.5s8.1-5.3,13.6-7s12.1-2.5,19.8-2.5c5.3,0,10.3,0.5,15.1,1.4
			s9.1,2.3,12.9,4.2c3.8,1.9,6.8,4.4,9,7.5s3.3,6.8,3.3,11.3c0,2.9-0.5,5.4-1.4,7.6c-1,2.2-2.2,4-3.7,5.5s-3.2,2.6-5,3.3
			c-1.9,0.7-3.8,1.1-5.7,1.1c-1.6,0-3.3-0.3-5.1-0.9c-1.9-0.6-3.6-1.6-5.1-3c-1.6-1.4-2.9-3.2-3.9-5.5s-1.5-5.1-1.5-8.5
			c0-6.1,2-11.6,6.1-16.6c0-0.4-0.3-0.7-1-0.9c-0.7-0.2-1.5-0.5-2.6-0.7s-2.3-0.4-3.5-0.5c-1.3-0.1-2.4-0.2-3.5-0.2
			c-6,0-10.9,1.7-14.8,5.1c-3.8,3.4-5.8,8-5.8,13.6c0,3.6,0.8,6.8,2.4,9.7c1.6,2.9,3.6,5.5,5.8,7.7c2.3,2.3,4.7,4.2,7.4,5.9
			c2.6,1.6,4.9,3,6.8,4c6.2,3.5,11.9,6.8,16.9,9.9s9.3,6.4,12.8,9.7c3.5,3.4,6.2,7,8.1,10.8c1.9,3.8,2.9,8.2,2.9,13.1
			c0,6-1.4,11.3-4.1,15.8c-2.8,4.6-6.4,8.4-10.9,11.5c-4.5,3.1-9.6,5.5-15.4,7c-5.8,1.6-11.6,2.3-17.6,2.3c-5.2,0-10.5-0.6-15.9-1.7
			c-5.5-1.1-10.4-2.9-14.9-5.2c-4.5-2.3-8.2-5.2-11.2-8.7c-2.9-3.5-4.4-7.6-4.4-12.2c0-2,0.3-4.1,0.9-6.1c0.6-2,1.5-3.9,2.7-5.5
			s2.7-2.9,4.5-4c1.8-1,3.9-1.5,6.3-1.5c1.8,0,3.7,0.3,5.7,1s3.8,1.7,5.6,3.1c1.7,1.4,3.2,3.2,4.2,5.3c1.1,2.2,1.6,4.8,1.6,7.9
			c0,2.4-0.5,5.1-1.4,8.1s-2.4,5.6-4.6,7.7c-0.5,0.5-0.7,0.9-0.7,1.3c0,0.8,0.6,1.6,1.8,2.3s2.7,1.3,4.5,1.9s3.8,1,6,1.4
			C793.1,516,795.3,516.2,797.4,516.2z"/>
		<path class="st1" d="M868.7,438.9c-1.6,0-3.3,0.6-5.2,1.7s-3.8,2.7-5.8,4.6c0-2.3,0.6-4.5,1.9-6.7c1.3-2.2,2.9-4.1,5-5.9
			c2.1-1.7,4.6-3.1,7.4-4.1c2.8-1,5.8-1.5,8.9-1.5c2.5,0,5,0.4,7.6,1.1c2.5,0.7,4.8,1.8,6.8,3.3s3.6,3.4,4.8,5.7
			c1.2,2.3,1.8,4.9,1.8,7.9v54.9c0,2.6,0.1,5,0.2,6.9c0.1,2,0.5,3.6,1.2,4.8c0.7,1.2,1.7,2.1,3.2,2.7s3.6,0.9,6.2,0.9v2.7h-50.4
			v-2.7c2.8,0,4.9-0.3,6.3-0.9c1.4-0.6,2.5-1.5,3.2-2.7c0.7-1.2,1-2.8,1.2-4.8c0.1-2,0.2-4.3,0.2-6.9V445c0-2.3-0.4-3.9-1.3-4.8
			C870.9,439.3,869.9,438.9,868.7,438.9z M872.1,406.3c0-2,0.4-4,1.3-5.9c0.8-1.9,1.9-3.5,3.3-4.9c1.4-1.4,3-2.5,4.9-3.3
			s3.8-1.3,5.9-1.3c2,0,4,0.4,5.8,1.3c1.9,0.8,3.5,2,4.9,3.3c1.4,1.4,2.5,3,3.3,4.9s1.3,3.8,1.3,5.9c0,2-0.4,4-1.3,5.8
			c-0.8,1.9-2,3.5-3.3,4.9c-1.4,1.4-3,2.5-4.9,3.3s-3.8,1.3-5.8,1.3s-4-0.4-5.9-1.3c-1.9-0.8-3.5-1.9-4.9-3.3s-2.5-3-3.3-4.9
			C872.6,410.3,872.1,408.3,872.1,406.3z"/>
		<path class="st1" d="M918.8,445.2c0-2.3,0.6-4.5,1.9-6.7c1.3-2.2,2.9-4.1,5-5.9c2.1-1.7,4.6-3.1,7.4-4.1c2.8-1,5.8-1.5,8.9-1.5
			c4.2,0,8.2,1,11.9,2.9s6.3,4.8,7.7,8.6c5.9-8.9,14.7-13.3,26.5-13.3c3.4,0,6.7,0.3,10,1s6.4,1.6,9.2,2.9s5.3,2.8,7.4,4.5
			c2.1,1.7,3.7,3.6,4.8,5.7c3.1-4.8,6.9-8.3,11.3-10.6c4.4-2.3,9.4-3.4,14.8-3.4c4.9,0,9.5,0.8,13.7,2.5s7.8,3.9,10.9,6.7
			c3.1,2.8,5.5,5.9,7.2,9.4s2.6,7.2,2.6,11.1v45c0,2.3,0.5,4,1.4,5.2s2,1.8,3.3,1.8s2.9-0.6,4.9-1.7c1.9-1.1,3.8-2.7,5.8-4.6
			c0,2.3-0.6,4.5-1.9,6.7s-2.9,4.1-4.9,5.9c-2,1.7-4.4,3.1-7.2,4.1c-2.8,1-5.7,1.5-8.8,1.5c-2.6,0-5.3-0.4-7.8-1.3
			c-2.6-0.8-4.9-2.1-6.8-3.7c-2-1.6-3.6-3.6-4.8-5.9c-1.2-2.3-1.8-5-1.8-8v-45c0-4.1-0.4-7.6-1.3-10.5c-0.8-2.9-1.9-5.4-3.2-7.3
			c-1.3-1.9-2.9-3.3-4.6-4.2c-1.7-0.9-3.5-1.4-5.1-1.4c-1.9,0-3.7,0.5-5.3,1.4s-3.1,2.1-4.3,3.5c-1.2,1.4-2.4,3-3.4,4.7
			s-1.8,3.3-2.4,4.9v54c0,2.6,0.1,5,0.2,6.9c0.1,2,0.5,3.6,1.2,4.8c0.7,1.2,1.7,2.1,3.2,2.7s3.6,0.9,6.2,0.9v2.7h-50.4v-2.7
			c2.8,0,4.9-0.3,6.3-0.9c1.4-0.6,2.5-1.5,3.2-2.7c0.7-1.2,1-2.8,1.2-4.8c0.1-2,0.2-4.3,0.2-6.9v-45c0-4.1-0.4-7.6-1.3-10.5
			c-0.8-2.9-1.9-5.4-3.2-7.3s-2.8-3.3-4.5-4.2c-1.7-0.9-3.4-1.4-5-1.4c-1.9,0-3.7,0.5-5.3,1.4s-3.1,2.1-4.4,3.5
			c-1.3,1.4-2.5,3-3.5,4.7s-1.8,3.4-2.4,5v53.6c0,2.6,0.1,5,0.2,6.9c0.1,2,0.5,3.6,1.2,4.8c0.7,1.2,1.7,2.1,3.2,2.7s3.6,0.9,6.2,0.9
			v2.7h-50.4v-2.7c2.8,0,4.9-0.3,6.3-0.9c1.4-0.6,2.5-1.5,3.2-2.7c0.7-1.2,1-2.8,1.2-4.8c0.1-2,0.2-4.3,0.2-6.9V445
			c0-2.3-0.4-3.9-1.3-4.8c-0.8-0.9-1.9-1.3-3.1-1.3c-1.6,0-3.3,0.6-5.2,1.7C922.6,441.7,920.7,443.2,918.8,445.2z"/>
		<path class="st1" d="M1101.1,445.2c0-2.3,0.6-4.5,1.8-6.7c1.2-2.2,2.8-4.1,4.8-5.9c2-1.7,4.2-3.1,6.8-4.1c2.5-1,5.1-1.5,7.7-1.5
			c2.5,0,4.9,0.5,7,1.4c2.2,1,4.1,2.2,5.8,3.6c1.7,1.4,3.1,3,4.3,4.7c1.2,1.7,2,3.2,2.5,4.7c0.1,0.1,0.2,0.2,0.2,0.4
			c0,0.1,0.1,0.2,0.2,0.4c2.6-5.4,6.3-9.6,10.9-12.5s10-4.4,16.1-4.4c4.9,0,9.6,1,14,3.1c4.4,2,8.3,5.1,11.6,9.2
			c3.3,4.1,5.9,9.1,7.8,15s2.9,12.9,2.9,20.8c0,7.8-1,14.6-2.9,20.5s-4.6,10.8-8,14.8c-3.4,4-7.5,7-12.2,9s-9.9,3.1-15.6,3.1
			c-3.6,0-6.7-0.4-9.4-1.1c-2.6-0.7-4.9-1.6-6.7-2.5c-1-0.5-1.9-1-2.8-1.6s-1.8-1.3-2.8-2V536c0,2.8,0.1,5.1,0.2,7s0.5,3.5,1.2,4.7
			s1.7,2.1,3.2,2.7c1.5,0.6,3.6,0.9,6.2,0.9v2.7h-50.4v-2.7c2.8,0,4.9-0.3,6.3-0.9c1.4-0.6,2.5-1.5,3.2-2.7s1-2.8,1.2-4.7
			c0.1-1.9,0.2-4.3,0.2-7v-90c0-2.3-0.5-4-1.3-5.2c-0.9-1.2-2-1.8-3.3-1.8s-2.9,0.6-4.9,1.7C1104.9,441.7,1103,443.2,1101.1,445.2z
			 M1145.2,507.4c1.9,1.8,4,3.5,6.3,5c2.3,1.6,5,2.3,8.1,2.3c2,0,4-0.5,5.8-1.6c1.9-1.1,3.5-3.1,4.9-6.1s2.5-7.2,3.3-12.5
			s1.3-12.3,1.3-21c0-8.8-0.4-15.9-1.3-21.3c-0.8-5.5-1.9-9.7-3.2-12.8c-1.3-3.1-2.8-5.1-4.5-6.2s-3.4-1.6-5.2-1.6
			c-1.9,0-3.7,0.5-5.2,1.3c-1.6,0.9-3,2-4.2,3.4c-1.3,1.4-2.4,2.9-3.4,4.6s-1.9,3.4-2.6,5v61.5H1145.2z"/>
		<path class="st1" d="M1225.1,402.9c-1.6,0-3.3,0.6-5.2,1.7c-1.9,1.1-3.8,2.7-5.8,4.6c0-2.3,0.6-4.5,1.9-6.7s2.9-4.1,5-5.9
			c2.1-1.7,4.6-3.1,7.4-4.1s5.8-1.5,8.9-1.5c2.5,0,5,0.4,7.6,1.1c2.5,0.7,4.8,1.8,6.8,3.3s3.6,3.4,4.8,5.7c1.2,2.3,1.8,4.9,1.8,7.9
			v90.9c0,2.6,0.1,5,0.2,6.9c0.1,2,0.5,3.6,1.2,4.8c0.7,1.2,1.7,2.1,3.2,2.7s3.6,0.9,6.2,0.9v2.7h-50.4v-2.7c2.8,0,4.9-0.3,6.3-0.9
			c1.4-0.6,2.5-1.5,3.2-2.7c0.7-1.2,1-2.8,1.2-4.8c0.1-2,0.2-4.3,0.2-6.9V409c0-2.3-0.4-3.9-1.3-4.8
			C1227.3,403.3,1226.3,402.9,1225.1,402.9z"/>
		<path class="st1" d="M1332.6,520.7c-8,0-15.2-1.2-21.5-3.6c-6.3-2.4-11.6-5.8-15.9-10.1c-4.3-4.3-7.6-9.5-9.8-15.5
			c-2.2-6-3.3-12.6-3.3-19.8s1.1-13.6,3.2-19.4c2.2-5.7,5.4-10.6,9.6-14.6c4.3-4,9.5-7.1,15.7-9.3c6.2-2.2,13.2-3.2,21.2-3.2
			c3.5,0,7.4,0.5,11.9,1.4c4.4,0.9,8.6,2.4,12.6,4.4s7.3,4.7,10,8.1s4,7.5,4,12.4c0,4.1-1,7.6-3,10.5s-4.6,5.4-7.8,7.3
			c-3.2,1.9-6.9,3.4-11,4.5s-8.3,1.9-12.5,2.4c-4.3,0.5-8.4,0.9-12.5,1s-7.7,0.2-10.8,0.2c0.1,7.9,0.5,14.4,1.2,19.3
			c0.7,5,1.7,8.8,3.1,11.5s3.4,4.5,5.8,5.5s5.3,1.4,8.6,1.4c6.2,0,12.7-1.2,19.3-3.6c6.7-2.4,12.4-6,17.2-10.8
			c0,2.3-0.8,4.6-2.3,6.9s-3.7,4.5-6.7,6.4c-2.9,1.9-6.6,3.5-11,4.7C1343.6,520,1338.5,520.7,1332.6,520.7z M1312.6,472.9
			c3.6-0.2,7.1-0.6,10.4-1.2c3.4-0.5,6.3-1.6,8.9-3.2s4.6-3.8,6.2-6.7c1.6-2.9,2.3-6.7,2.3-11.5c0-2.5-0.2-5-0.7-7.6
			c-0.5-2.5-1.2-4.7-2.3-6.7c-1-1.9-2.3-3.5-3.9-4.7s-3.4-1.8-5.6-1.8s-4.2,0.7-6,2.1c-1.9,1.4-3.5,3.8-4.9,7.1
			c-1.4,3.4-2.5,7.8-3.3,13.3C1313,457.7,1312.6,464.6,1312.6,472.9z"/>
		<path class="st1" d="M1484.9,516.2c7.4,0,13.3-2,17.6-5.9c4.3-4,6.4-9.1,6.4-15.3c0-2.6-0.5-5.1-1.4-7.4c-1-2.3-2.7-4.6-5.2-7.1
			s-6-5.2-10.4-8.1s-10.1-6.4-17.1-10.4c-2.6-1.6-5.7-3.4-9.2-5.7c-3.5-2.2-6.7-4.9-9.7-8.1s-5.6-6.9-7.6-11.2
			c-2.1-4.3-3.2-9.1-3.2-14.7c0-4.7,0.8-9,2.5-13s4.3-7.5,7.8-10.5s8.1-5.3,13.6-7s12.1-2.5,19.8-2.5c5.3,0,10.3,0.5,15.1,1.4
			c4.8,0.9,9.1,2.3,12.9,4.2c3.8,1.9,6.8,4.4,9,7.5s3.3,6.8,3.3,11.3c0,2.9-0.5,5.4-1.4,7.6c-1,2.2-2.2,4-3.7,5.5s-3.2,2.6-5,3.3
			c-1.9,0.7-3.8,1.1-5.7,1.1c-1.6,0-3.3-0.3-5.1-0.9c-1.9-0.6-3.6-1.6-5.1-3c-1.6-1.4-2.9-3.2-3.9-5.5s-1.5-5.1-1.5-8.5
			c0-6.1,2-11.6,6.1-16.6c0-0.4-0.3-0.7-1-0.9c-0.7-0.2-1.5-0.5-2.6-0.7s-2.3-0.4-3.5-0.5c-1.3-0.1-2.4-0.2-3.5-0.2
			c-6,0-10.9,1.7-14.8,5.1c-3.8,3.4-5.8,8-5.8,13.6c0,3.6,0.8,6.8,2.4,9.7c1.6,2.9,3.6,5.5,5.8,7.7c2.3,2.3,4.7,4.2,7.4,5.9
			c2.6,1.6,4.9,3,6.8,4c6.2,3.5,11.9,6.8,16.9,9.9s9.3,6.4,12.8,9.7c3.5,3.4,6.2,7,8.1,10.8s2.9,8.2,2.9,13.1c0,6-1.4,11.3-4.1,15.8
			c-2.8,4.6-6.4,8.4-10.9,11.5c-4.5,3.1-9.6,5.5-15.4,7c-5.8,1.6-11.6,2.3-17.6,2.3c-5.2,0-10.5-0.6-15.9-1.7
			c-5.5-1.1-10.4-2.9-14.9-5.2c-4.5-2.3-8.2-5.2-11.2-8.7c-2.9-3.5-4.4-7.6-4.4-12.2c0-2,0.3-4.1,0.9-6.1s1.5-3.9,2.7-5.5
			s2.7-2.9,4.5-4c1.8-1,3.9-1.5,6.3-1.5c1.8,0,3.7,0.3,5.7,1s3.8,1.7,5.6,3.1c1.7,1.4,3.2,3.2,4.2,5.3c1.1,2.2,1.6,4.8,1.6,7.9
			c0,2.4-0.5,5.1-1.4,8.1s-2.4,5.6-4.6,7.7c-0.5,0.5-0.7,0.9-0.7,1.3c0,0.8,0.6,1.6,1.8,2.3c1.2,0.7,2.7,1.3,4.5,1.9s3.8,1,6,1.4
			C1480.5,516,1482.7,516.2,1484.9,516.2z"/>
		<path class="st1" d="M1599.9,425.2c7.4,0,14.1,1.1,20.1,3.2c5.9,2.2,11,5.3,15.1,9.5c4.1,4.1,7.3,9.2,9.5,15
			c2.2,5.9,3.3,12.5,3.3,20c0,7.4-1.1,14.1-3.3,20c-2.2,5.9-5.4,10.9-9.5,15s-9.2,7.3-15.1,9.5s-12.6,3.2-20.1,3.2
			c-7.4,0-14.1-1.1-20.1-3.2c-5.9-2.2-11-5.3-15.1-9.5c-4.1-4.1-7.3-9.1-9.5-15s-3.3-12.5-3.3-20c0-7.4,1.1-14.1,3.3-20
			c2.2-5.9,5.4-10.9,9.5-15s9.2-7.3,15.1-9.5C1585.7,426.3,1592.4,425.2,1599.9,425.2z M1599.9,516.2c2,0,4.1-0.6,6.1-1.8
			s3.9-3.4,5.6-6.7c1.7-3.2,3.1-7.7,4.1-13.2s1.6-12.7,1.6-21.5s-0.5-15.9-1.6-21.5s-2.5-10-4.1-13.2c-1.7-3.2-3.5-5.5-5.6-6.7
			c-2-1.2-4.1-1.8-6.1-1.8s-4.1,0.6-6.1,1.8c-2,1.2-3.9,3.4-5.6,6.7c-1.7,3.2-3.1,7.7-4.1,13.2s-1.6,12.8-1.6,21.5
			c0,8.8,0.5,15.9,1.6,21.5s2.5,10,4.1,13.2c1.7,3.2,3.5,5.5,5.6,6.7C1595.8,515.5,1597.8,516.2,1599.9,516.2z"/>
		<path class="st1" d="M1666.7,402.9c-1.6,0-3.3,0.6-5.2,1.7c-1.9,1.1-3.8,2.7-5.8,4.6c0-2.3,0.6-4.5,1.9-6.7s2.9-4.1,5-5.9
			c2.1-1.7,4.6-3.1,7.4-4.1s5.8-1.5,8.9-1.5c2.5,0,5,0.4,7.6,1.1c2.5,0.7,4.8,1.8,6.8,3.3s3.6,3.4,4.8,5.7c1.2,2.3,1.8,4.9,1.8,7.9
			v90.9c0,2.6,0.1,5,0.2,6.9c0.1,2,0.5,3.6,1.2,4.8c0.7,1.2,1.7,2.1,3.2,2.7s3.6,0.9,6.2,0.9v2.7h-50.4v-2.7c2.8,0,4.9-0.3,6.3-0.9
			c1.4-0.6,2.5-1.5,3.2-2.7c0.7-1.2,1-2.8,1.2-4.8c0.1-2,0.2-4.3,0.2-6.9V409c0-2.3-0.4-3.9-1.3-4.8
			C1668.9,403.3,1667.8,402.9,1666.7,402.9z"/>
		<path class="st1" d="M1731.3,438.9c-1.3,0-2.9,0.6-4.9,1.7c-1.9,1.1-3.8,2.7-5.8,4.6c0-2.3,0.6-4.5,1.9-6.7s2.9-4.1,5-5.9
			c2-1.7,4.5-3.1,7.3-4.1s5.7-1.5,8.7-1.5c2.6,0,5.2,0.4,7.8,1.3c2.6,0.8,4.9,2.1,6.8,3.7c2,1.6,3.6,3.6,4.8,5.9
			c1.2,2.3,1.8,5,1.8,8v45c0,4.1,0.4,7.6,1.3,10.5c0.8,2.9,1.9,5.4,3.2,7.3c1.3,1.9,2.8,3.3,4.5,4.2s3.4,1.4,5,1.4
			c1.9,0,3.7-0.5,5.3-1.4c1.6-0.9,3.1-2.1,4.4-3.5s2.5-3,3.5-4.8c1-1.7,1.8-3.4,2.4-4.9v-53.8c0-2.3-0.5-4-1.3-5.2
			c-0.9-1.2-2-1.8-3.3-1.8s-2.9,0.6-4.9,1.7c-1.9,1.1-3.8,2.7-5.8,4.6c0-2.3,0.6-4.5,1.9-6.7s2.9-4.1,5-5.9c2-1.7,4.5-3.1,7.3-4.1
			s5.7-1.5,8.7-1.5c2.6,0,5.2,0.4,7.8,1.3c2.6,0.8,4.9,2.1,6.8,3.7c2,1.6,3.6,3.6,4.8,5.9c1.2,2.3,1.8,5,1.8,8v54.9
			c0,2.3,0.4,3.9,1.3,4.8c0.8,0.9,1.9,1.3,3.1,1.3c1.6,0,3.3-0.6,5.2-1.7c1.9-1.1,3.8-2.7,5.8-4.6c0,2.3-0.6,4.5-1.9,6.7
			s-2.9,4.1-5,5.9c-2.1,1.7-4.6,3.1-7.4,4.1s-5.8,1.5-8.9,1.5c-4.2,0-8.2-1-11.9-2.9c-3.7-1.9-6.3-4.8-7.7-8.6
			c-3,4.6-6.7,7.9-11,10.1s-9.2,3.2-14.6,3.2c-4.9,0-9.5-0.8-13.7-2.5s-7.8-3.9-10.9-6.7c-3.1-2.8-5.4-5.9-7.1-9.5s-2.5-7.3-2.5-11
			v-45c0-2.3-0.5-4-1.3-5.2C1733.7,439.5,1732.6,438.9,1731.3,438.9z"/>
		<path class="st1" d="M1865.4,391c2.5,0,5,0.4,7.6,1.1c2.5,0.7,4.8,1.8,6.8,3.3s3.6,3.4,4.8,5.7c1.2,2.3,1.8,4.9,1.8,7.9v18.9h27
			v4.5h-27v62.1c0,1.6,0.1,3.5,0.2,5.9c0.1,2.3,0.6,4.6,1.4,6.8c0.8,2.2,2.2,4,4.1,5.6c1.9,1.6,4.5,2.3,7.8,2.3c4.3,0,8.7-1.3,13-4
			c4.4-2.6,8.7-6.1,12.9-10.3c0,2.3-0.5,4.6-1.6,6.9s-2.9,4.5-5.4,6.4s-5.8,3.5-9.9,4.7s-9.1,1.8-15.1,1.8
			c-10.8,0-19.5-2.2-26.2-6.5c-6.7-4.3-10-10.9-10-19.6v-62.1h-10.8v-4.5h10.8V409c0-2.3-0.4-3.9-1.3-4.8c-0.8-0.9-1.9-1.3-3.1-1.3
			c-1.6,0-3.3,0.6-5.2,1.7c-1.9,1.1-3.8,2.7-5.8,4.6c0-2.3,0.6-4.5,1.9-6.7s2.9-4.1,5-5.9c2.1-1.7,4.6-3.1,7.4-4.1
			C1859.3,391.5,1862.2,391,1865.4,391z"/>
		<path class="st1" d="M1939.7,438.9c-1.6,0-3.3,0.6-5.2,1.7c-1.9,1.1-3.8,2.7-5.8,4.6c0-2.3,0.6-4.5,1.9-6.7s2.9-4.1,5-5.9
			c2.1-1.7,4.6-3.1,7.4-4.1s5.8-1.5,8.9-1.5c2.5,0,5,0.4,7.6,1.1c2.5,0.7,4.8,1.8,6.8,3.3s3.6,3.4,4.8,5.7c1.2,2.3,1.8,4.9,1.8,7.9
			v54.9c0,2.6,0.1,5,0.2,6.9c0.1,2,0.5,3.6,1.2,4.8c0.7,1.2,1.7,2.1,3.2,2.7s3.6,0.9,6.2,0.9v2.7h-50.4v-2.7c2.8,0,4.9-0.3,6.3-0.9
			c1.4-0.6,2.5-1.5,3.1-2.7c0.7-1.2,1-2.8,1.2-4.8c0.1-2,0.2-4.3,0.2-6.9V445c0-2.3-0.4-3.9-1.3-4.8
			C1941.9,439.3,1940.9,438.9,1939.7,438.9z M1943.1,406.3c0-2,0.4-4,1.3-5.9c0.8-1.9,1.9-3.5,3.3-4.9s3-2.5,4.9-3.3
			s3.8-1.3,5.8-1.3s4,0.4,5.9,1.3c1.9,0.8,3.5,2,4.9,3.3c1.4,1.4,2.5,3,3.3,4.9s1.3,3.8,1.3,5.9c0,2-0.4,4-1.3,5.8
			c-0.8,1.9-2,3.5-3.3,4.9c-1.4,1.4-3,2.5-4.9,3.3s-3.8,1.3-5.9,1.3c-2,0-4-0.4-5.8-1.3c-1.9-0.8-3.5-1.9-4.9-3.3s-2.5-3-3.3-4.9
			C1943.5,410.3,1943.1,408.3,1943.1,406.3z"/>
		<path class="st1" d="M2043.7,425.2c7.4,0,14.1,1.1,20.1,3.2c5.9,2.2,11,5.3,15.1,9.5c4.1,4.1,7.3,9.2,9.5,15
			c2.2,5.9,3.3,12.5,3.3,20c0,7.4-1.1,14.1-3.3,20s-5.4,10.9-9.5,15s-9.2,7.3-15.1,9.5c-5.9,2.2-12.6,3.2-20.1,3.2
			c-7.4,0-14.1-1.1-20.1-3.2c-5.9-2.2-11-5.3-15.1-9.5c-4.1-4.1-7.3-9.1-9.5-15s-3.3-12.5-3.3-20c0-7.4,1.1-14.1,3.3-20
			c2.2-5.9,5.4-10.9,9.5-15s9.2-7.3,15.1-9.5C2029.6,426.3,2036.3,425.2,2043.7,425.2z M2043.7,516.2c2,0,4.1-0.6,6.1-1.8
			c2-1.2,3.9-3.4,5.6-6.7c1.7-3.2,3.1-7.7,4.1-13.2c1.1-5.6,1.6-12.7,1.6-21.5s-0.5-15.9-1.6-21.5c-1.1-5.6-2.5-10-4.1-13.2
			c-1.7-3.2-3.5-5.5-5.6-6.7c-2-1.2-4.1-1.8-6.1-1.8s-4.1,0.6-6.1,1.8c-2,1.2-3.9,3.4-5.6,6.7c-1.7,3.2-3.1,7.7-4.1,13.2
			s-1.6,12.8-1.6,21.5c0,8.8,0.5,15.9,1.6,21.5s2.5,10,4.1,13.2c1.7,3.2,3.5,5.5,5.6,6.7C2039.7,515.5,2041.7,516.2,2043.7,516.2z"
			/>
		<path class="st1" d="M2115.7,438.9c-1.6,0-3.3,0.6-5.2,1.7s-3.8,2.7-5.8,4.6c0-2.3,0.6-4.5,1.9-6.7c1.3-2.2,2.9-4.1,5-5.9
			c2.1-1.7,4.6-3.1,7.4-4.1c2.8-1,5.8-1.5,8.9-1.5c4.2,0,8.2,1,11.9,2.9s6.3,4.8,7.7,8.6c3-4.6,6.7-7.9,11-10.1s9.2-3.2,14.6-3.2
			c4.9,0,9.5,0.8,13.7,2.5s7.8,3.9,10.9,6.7c3.1,2.8,5.4,5.9,7.1,9.4c1.7,3.5,2.5,7.2,2.5,11.1v45c0,2.3,0.5,4,1.3,5.2
			c0.9,1.2,2,1.8,3.3,1.8s2.9-0.6,4.9-1.7c1.9-1.1,3.8-2.7,5.8-4.6c0,2.3-0.6,4.5-1.9,6.7c-1.3,2.2-2.9,4.1-5,5.9
			c-2,1.7-4.4,3.1-7.2,4.1s-5.7,1.5-8.8,1.5c-2.6,0-5.3-0.4-7.8-1.3c-2.6-0.8-4.9-2.1-6.8-3.7c-2-1.6-3.6-3.6-4.8-5.9s-1.8-5-1.8-8
			v-45c0-4.1-0.4-7.6-1.3-10.5c-0.8-2.9-1.9-5.4-3.2-7.3s-2.8-3.3-4.5-4.2c-1.7-0.9-3.4-1.4-5-1.4c-1.9,0-3.7,0.5-5.3,1.4
			s-3.1,2.1-4.4,3.5c-1.3,1.4-2.5,3-3.5,4.7s-1.8,3.4-2.4,5v53.8c0,2.6,0.1,5,0.2,6.9c0.1,2,0.5,3.6,1.2,4.8
			c0.7,1.2,1.7,2.1,3.2,2.7s3.6,0.9,6.2,0.9v2.7h-50.4v-2.7c2.8,0,4.9-0.3,6.3-0.9c1.4-0.6,2.5-1.5,3.1-2.7c0.7-1.2,1-2.8,1.2-4.8
			c0.1-2,0.2-4.3,0.2-6.9V445c0-2.3-0.4-3.9-1.3-4.8C2118,439.3,2116.9,438.9,2115.7,438.9z"/>
		<path class="st1" d="M2263.5,492.1c0,3.5-1,7.1-3.1,10.8c-0.2,0.5-0.5,1-0.7,1.5s-0.4,1.2-0.4,1.9c0,1.6,0.5,2.9,1.6,4
			s2.5,2,4.1,2.6c1.7,0.7,3.5,1.1,5.4,1.4c1.9,0.3,3.7,0.5,5.4,0.5c4.2,0,7.8-0.9,10.8-2.7c3-1.8,4.5-5,4.5-9.5c0-2-0.3-3.8-1-5.4
			s-1.8-3.1-3.3-4.5c-1.6-1.4-3.5-2.9-5.9-4.3s-5.3-3.1-8.8-4.9c-6.4-3.2-11.7-6.2-15.9-9c-4.3-2.8-7.6-5.4-10.2-7.9
			c-2.5-2.5-4.3-5-5.4-7.5c-1.1-2.5-1.6-5.1-1.6-7.8c0-3.8,0.9-7.3,2.7-10.5s4.4-5.9,7.7-8.3c3.4-2.3,7.4-4.1,12.2-5.4
			c4.7-1.3,10-1.9,15.9-1.9c5.3,0,10.4,0.5,15.2,1.6c4.9,1.1,9.1,2.7,12.8,4.9c3.7,2.2,6.6,4.8,8.7,8c2.2,3.2,3.2,6.8,3.2,10.9
			c0,4.3-1.2,7.8-3.6,10.5c-2.4,2.7-5.6,4-9.5,4c-3.8,0-7.1-1.2-9.7-3.6c-2.6-2.4-4-5.7-4-9.9c0-2.5,0.4-4.7,1.2-6.7
			c0.8-1.9,1.5-3.4,2.1-4.3c1-1.9,1.4-3.1,1.4-3.6c0-1.2-1.2-2.7-3.6-4.5c-2.4-1.8-5.5-2.7-9.2-2.7c-3.8,0-7.1,1.2-9.8,3.5
			s-4,5.3-4,8.9c0,2.4,0.6,4.6,1.8,6.6s2.6,3.7,4.3,5.2s3.4,2.8,5.3,3.9c1.9,1.1,3.4,2,4.8,2.7c7.2,3.7,13.1,7.1,17.6,10.2
			c4.6,3.1,8.2,5.9,10.8,8.4s4.5,4.9,5.5,7.2c1,2.3,1.5,4.6,1.5,7c0,4-1.1,7.6-3.4,11c-2.3,3.4-5.4,6.2-9.4,8.6s-8.6,4.3-13.9,5.6
			c-5.3,1.3-10.9,2-16.9,2c-4.7,0-9.5-0.5-14.3-1.4c-4.9-1-9.3-2.5-13.3-4.6s-7.3-4.9-9.8-8.3s-3.8-7.6-3.8-12.5
			c0-4.8,1.3-8.7,3.8-11.6s6.1-4.4,10.6-4.4c4.6,0,7.9,1.4,10.2,4.1C2262.4,484.6,2263.5,488.1,2263.5,492.1z"/>
	</g>
	<g>
		<polygon class="st1" points="555.1,242.3 558,242.3 555.1,238.5 		"/>
		<polygon class="st1" points="83.1,209.6 83.1,242.3 100.8,242.3 84,209.6 		"/>
		<rect x="8.7" y="263" class="st1" width="74.4" height="82.2"/>
		<polygon class="st1" points="154.1,345.6 241.1,345.6 194.3,263 111.5,263 		"/>
		<path class="st1" d="M83.1,209.6H84l16.9,32.7h81.7L166,213c14.8-5.6,26.6-15.7,35.3-30.4c8.8-14.8,13.3-30.4,13.3-46.6
			c0-22.1-5.1-40.1-15.2-54.1c-10.3-14-24.5-24-42.6-30.2c-18.4-6.3-39.6-9.4-63.5-9.4H8.7v199.9h74.4
			C83.1,242.2,83.1,209.6,83.1,209.6z M83.1,106.7c19,0,33.2,2.9,42.8,8.6c9.4,5.7,14.1,16.4,14.1,32.1c0,10.4-2.2,18.9-6.6,25.5
			c-4.7,6.8-11.1,11.6-19,14.3c-8.3,3-18.7,4.5-31.2,4.5v-85H83.1z"/>
		<path class="st1" d="M390.6,274.4c-11.2,11-24.6,16.5-40.2,16.5c-15.4,0-28.7-5.5-40-16.5c-3.7-3.6-6.8-7.4-9.3-11.4h-72.7
			c2.8,11.5,7.5,22.2,14,32.3c11.4,17.8,26.8,31.9,46.2,42.1c19.4,10.3,40,15.4,61.8,15.4c16.7,0,32.5-2.9,47.5-8.8
			c14.8-5.6,28.3-13.8,40.4-24.6c12-11,21.2-23.6,27.8-37.9c2.8-6,4.9-12.2,6.5-18.7h-72.7C397.4,267.1,394.3,270.9,390.6,274.4z"/>
		<path class="st1" d="M293.3,235.1c0-10,2.6-19.2,7.9-27.6c5.3-8.4,12.3-15.1,21.2-20.1c8.8-5,18.2-7.5,28-7.5
			c10.1,0,19.5,2.5,28.2,7.5c8.8,5,15.9,11.7,21.2,20.1c5.3,8.4,7.9,17.6,7.9,27.6c0,2.5-0.2,4.9-0.5,7.2h68.5
			c0.1-2.4,0.2-4.8,0.2-7.2c0-16.7-3.4-32.2-10.1-46.6c-6.6-14.3-15.8-26.8-27.6-37.6c-12-10.8-25.5-19-40.4-24.4
			c-15.4-5.7-31.2-8.6-47.5-8.6c-16.1,0-31.9,2.9-47.3,8.6c-15.1,5.7-28.6,13.9-40.4,24.6c-11.7,10.6-20.9,23-27.6,37.4
			c-6.7,14.4-10.1,29.9-10.1,46.6c0,2.4,0.1,4.8,0.2,7.2h68.5C293.5,239.9,293.3,237.5,293.3,235.1z"/>
		<polygon class="st1" points="555.1,238.5 558,242.3 643.7,242.3 627.8,221 706.9,127.1 626.7,127.1 556,210 555.1,210 555.1,42.4 
			486.7,42.6 486.7,242.3 555.1,242.3 		"/>
		<rect x="486.7" y="263" class="st1" width="68.4" height="82.8"/>
		<polygon class="st1" points="635.5,345.9 720.9,345.9 659.2,263 573.5,263 		"/>
		<path class="st1" d="M932.8,239.1c0.1-0.9,0.2-1.6,0.2-2.4v-1.8c0-16.4-3.2-31.8-9.6-46.2c-6.4-14.5-15.3-27-26.5-37.4
			c-11.4-10.7-24.3-18.8-38.7-24.4c-14.5-5.7-29.7-8.6-45.3-8.6c-15.7,0-30.9,2.9-45.6,8.6c-14.3,5.6-27.1,13.8-38.5,24.6
			c-11.3,10.6-20.1,23-26.5,37.2c-6.4,14.1-9.6,29.5-9.6,46.2c0,2.5,0.1,5,0.2,7.4h239.5L932.8,239.1z M770.9,200.6
			c4.8-5.7,9.8-10.1,15-13.3c8.4-4.8,17.4-7.3,26.9-7.3c9.6,0,18.5,2.4,26.9,7.3c5.1,3.1,10.1,7.6,15,13.3H770.9z"/>
		<path class="st1" d="M709.3,295c10.8,17.8,25.6,31.9,44.3,42.1c18.2,10.1,38,15.2,59.2,15.2c15.7,0,30.8-2.9,45.3-8.6
			c10.8-4.4,21.5-10.9,32.1-19.5l-36.8-52.6l-0.4,0.6l-0.6,0.7l-0.6,0.9l-0.4,0.4c-10.8,10.8-23.7,16.3-38.5,16.3
			c-14.7,0-27.5-5.4-38.5-16.3c-3.5-3.5-6.4-7.2-8.7-11.2H696C698.6,274.4,703.1,285,709.3,295z"/>
	</g>
	<g>
		<path class="st2" d="M1058.8,277c-7.7,4.7-15.8,7.1-24.2,7.1c-19.4,0-35.4-7-47.8-21h-5.2L943.8,317c12.4,12,26.8,21,43.2,26.9
			c16.3,6,33.1,9,50.5,9c30.1,0,54.8-8.8,74.2-26.3c17.2-15.3,26.8-36.5,28.9-63.6h-71.2C1068,268.9,1064.5,273.6,1058.8,277z"/>
		<path class="st2" d="M1124.4,194c-11.1-13-24.2-22.5-39.4-28.4c-15-5.7-29.6-11.6-43.8-17.8c-14-6-21-14.1-21-24.4
			c0-7.3,3.2-13.1,9.6-17.5c6.1-4.4,12.7-6.6,19.7-6.6c9.4,0,17.7,1.9,24.8,5.6c6.7,3.4,14.5,9.3,23.3,17.8l36.6-52.2
			c-11.5-11.1-25-19.8-40.4-26.1c-15.1-6-30.5-9-46.2-9c-17,0-32.9,3.7-47.7,11.1c-15.2,7.5-27.4,18.3-36.5,32.4
			c-9.4,14.3-14.1,30.9-14.1,50c0,25,5.4,43.7,16.3,56.2c10.8,12.7,23.9,22.2,39.1,28.4l11.3,4.7l11.1,4.5
			c8.3,3.4,15.5,6.5,21.8,9.2c6.7,2.9,11.8,6.3,15.4,10.2h76.3C1139.4,221.5,1134,205.4,1124.4,194z"/>
		<path class="st2" d="M1391.8,239.1c0.1-0.9,0.2-1.6,0.2-2.4v-1.8c0-16.4-3.2-31.8-9.6-46.2c-6.4-14.5-15.3-27-26.5-37.4
			c-11.4-10.7-24.3-18.8-38.7-24.4c-14.5-5.7-29.7-8.6-45.3-8.6c-15.7,0-30.9,2.9-45.6,8.6c-14.3,5.6-27.1,13.8-38.5,24.6
			c-11.3,10.6-20.1,23-26.5,37.2c-6.4,14.1-9.6,29.5-9.6,46.2c0,2.5,0.1,5,0.2,7.4h239.5L1391.8,239.1z M1229.9,200.6
			c4.8-5.7,9.8-10.1,15-13.3c8.4-4.8,17.4-7.3,26.9-7.3c9.6,0,18.5,2.4,26.9,7.3c5.1,3.1,10.1,7.6,15,13.3H1229.9z"/>
		<path class="st2" d="M1168.3,295c10.8,17.8,25.6,31.9,44.3,42.1c18.2,10.1,38,15.2,59.2,15.2c15.7,0,30.8-2.9,45.3-8.6
			c10.8-4.4,21.5-10.9,32.1-19.5l-36.8-52.6l-0.4,0.6l-0.6,0.6l-0.6,0.9l-0.4,0.4c-10.8,10.8-23.7,16.3-38.5,16.3
			c-14.7,0-27.5-5.4-38.5-16.3c-3.5-3.5-6.4-7.2-8.7-11.2H1155C1157.6,274.4,1162.1,285,1168.3,295z"/>
		<rect x="1402.7" y="263" class="st2" width="68.4" height="82.8"/>
		<path class="st2" d="M1471.1,216.2c0-23.5,8.7-35.6,26.1-36.4h3.8c5.7,0.3,10.3,1.6,13.9,4.1v-64.6c-4.6-0.7-9.2-1.1-13.9-1.3
			h-3.8c-63,3.1-94.5,35.9-94.5,98.2v26.1h68.4V216.2z"/>
		<polygon class="st2" points="1636.8,354.8 1683.3,263 1591.9,263 		"/>
		<polygon class="st2" points="1752.1,127.1 1679.6,127.1 1637.7,224.2 1595.1,127.1 1525.6,127.5 1581.8,242.3 1693.8,242.3 		"/>
		<path class="st2" d="M1780.6,96.3c5.3,3.1,11.2,4.7,17.8,4.7c6.6,0,12.5-1.6,18-4.9c5.4-3.3,9.7-7.6,12.8-12.8
			c3.1-5.3,4.7-11.3,4.7-18.2c0-6.6-1.6-12.5-4.7-18c-3.3-5.6-7.6-9.9-12.8-13c-5.4-3.1-11.4-4.7-18-4.7s-12.5,1.6-17.8,4.7
			s-9.6,7.5-13,13c-3.1,5.4-4.7,11.4-4.7,18c0,6.4,1.6,12.5,4.9,18.2C1770.9,88.6,1775.1,93,1780.6,96.3z"/>
		<polygon class="st2" points="1833.6,127.1 1765.4,127.3 1765.4,242.3 1833.6,242.3 		"/>
		<rect x="1765.4" y="263" class="st2" width="68.2" height="83.2"/>
		<path class="st2" d="M1859.7,294.7c10.1,17.1,24.7,30.9,43.6,41.5c19,10.4,40.8,15.6,65.7,15.6c8.8,0,18.5-1.1,28.9-3.2
			s20.5-5.4,30.4-9.8c9.7-4.4,17.3-9.5,22.7-15.2l-37.4-47.5c-12,10.7-26.4,16-43.2,16c-11.4,0-21.5-2.8-30.2-8.3
			c-8.6-5.2-15.1-12.1-19.7-20.8h-73.3C1849.6,274,1853.8,284.6,1859.7,294.7z"/>
		<path class="st2" d="M1912.7,230.4c0-15,5.5-27.5,16.5-37.6c10.8-10.1,24.1-15.2,39.8-15.2c8.4,0,16.4,1.3,24,3.8
			c7.3,2.6,14,6.4,20.1,11.5l35.5-48.3c-10.7-8.6-23-15.2-37-19.9c-13.8-4.6-28-6.8-42.6-6.8c-17.8,0-34.4,2.9-49.8,8.8
			c-15.5,6-28.7,14.2-39.6,24.6c-11,10.7-19.6,23.5-25.9,38.5c-6.1,14.7-9.2,31.1-9.2,49.2c0,1.1,0,2.3,0.1,3.4h69.1
			C1913,238.5,1912.7,234.5,1912.7,230.4z"/>
		<path class="st2" d="M2054.3,295c10.8,17.8,25.6,31.9,44.3,42.1c18.2,10.1,38,15.2,59.2,15.2c15.7,0,30.8-2.9,45.3-8.6
			c10.8-4.4,21.5-10.9,32.1-19.5l-36.8-52.6l-0.4,0.6l-0.6,0.6l-0.6,0.9l-0.4,0.4c-10.8,10.8-23.7,16.3-38.5,16.3
			c-14.7,0-27.5-5.4-38.5-16.3c-3.5-3.5-6.4-7.2-8.7-11.2H2041C2043.6,274.4,2048.1,285,2054.3,295z"/>
		<path class="st2" d="M2277.8,239.1c0.1-0.9,0.2-1.6,0.2-2.4v-1.8c0-16.4-3.2-31.8-9.6-46.2c-6.4-14.5-15.3-27-26.5-37.4
			c-11.4-10.7-24.3-18.8-38.7-24.4c-14.5-5.7-29.7-8.6-45.3-8.6c-15.7,0-30.9,2.9-45.6,8.6c-14.3,5.6-27.1,13.8-38.5,24.6
			c-11.3,10.6-20.1,23-26.5,37.2c-6.4,14.1-9.6,29.5-9.6,46.2c0,2.5,0.1,5,0.2,7.4h239.5L2277.8,239.1z M2115.9,200.6
			c4.8-5.7,9.8-10.1,15-13.3c8.4-4.8,17.4-7.3,26.9-7.3c9.6,0,18.5,2.4,26.9,7.3c5.1,3.1,10.1,7.6,15,13.3H2115.9z"/>
		<path class="st2" d="M2452.7,232.7c-9.4-9.6-21.2-16.1-35.3-19.7c-12.8-3-25.6-6.2-38.3-9.6c-11.5-3.1-17.3-8.6-17.3-16.5
			c0-8.7,7.8-13,23.3-13c13,0,24.9,4.1,35.9,12.4l37.6-37.4c-6.4-5.8-13.8-11.1-22.2-15.8c-7.7-4.4-16.4-8.1-26.1-11.1
			c-9-2.4-17.8-3.6-26.5-3.6c-15.4,0-29.6,2.6-42.6,7.9c-12.7,5.1-23,13.1-31,24c-7.8,10.8-11.8,24.1-11.8,39.8
			c0,20.4,4.8,35.5,14.3,45.3c2.5,2.5,5.1,4.9,7.8,7h139C2457.8,238.7,2455.4,235.5,2452.7,232.7z"/>
		<path class="st2" d="M2386.7,265.4c11.3,3,16.9,7.6,16.9,13.9c0,12-10.2,18-30.6,18c-19.5,0-36.1-6.8-49.6-20.3l-34.6,45.8
			c9.8,7.4,19.2,13.3,28.2,17.8c8.7,4.4,18,7.6,28,9.4c10,2,21.2,3,33.6,3c14.8,0,29.2-2.9,43-8.8c13.8-5.6,24.9-14,33.1-25.5
			c8.3-11.3,12.4-24.7,12.4-40.2c0-5.5-0.4-10.7-1-15.4h-89.3C2380.6,264,2383.9,264.8,2386.7,265.4z"/>
	</g>
	<path d="M983.9,259.7l-2.4,3.4h5.2C985.8,262,984.8,260.8,983.9,259.7z"/>
</g>
</svg>
