<?xml version="1.0" encoding="utf-8"?>
<!-- Generator: Adobe Illustrator 24.0.2, SVG Export Plug-In . SVG Version: 6.00 Build 0)  -->
<svg version="1.1" id="Layer_1" xmlns="http://www.w3.org/2000/svg" xmlns:xlink="http://www.w3.org/1999/xlink" x="0px" y="0px"
	 viewBox="0 0 2475.8 583.4" style="enable-background:new 0 0 2475.8 583.4;" xml:space="preserve">
<style type="text/css">
	.st0{fill-rule:evenodd;clip-rule:evenodd;fill:none;}
	.st1{fill:#CC3333;}
</style>
<polygon class="st0" points="2068.5,359.1 2072,359.1 2072,359.1 2068.5,359.1 "/>
<g>
	<path d="M786,516.2c7.4,0,13.3-2,17.6-5.9c4.3-4,6.4-9.1,6.4-15.3c0-2.6-0.5-5.1-1.4-7.4c-1-2.3-2.7-4.6-5.2-7.1
		c-2.5-2.5-6-5.2-10.4-8.1c-4.4-2.9-10.1-6.4-17.1-10.4c-2.6-1.6-5.7-3.4-9.2-5.7c-3.5-2.2-6.7-4.9-9.7-8.1c-3-3.2-5.6-6.9-7.6-11.2
		c-2.1-4.3-3.2-9.1-3.2-14.7c0-4.7,0.8-9,2.5-13c1.7-4,4.3-7.5,7.8-10.5c3.5-3,8.1-5.3,13.6-7c5.5-1.7,12.1-2.5,19.8-2.5
		c5.3,0,10.3,0.5,15.1,1.4c4.8,0.9,9.1,2.3,12.9,4.2c3.8,1.9,6.8,4.4,9,7.5c2.2,3.1,3.3,6.8,3.3,11.3c0,2.9-0.5,5.4-1.4,7.6
		c-1,2.2-2.2,4-3.7,5.5c-1.5,1.5-3.2,2.6-5,3.3c-1.9,0.7-3.8,1.1-5.7,1.1c-1.6,0-3.3-0.3-5.1-0.9c-1.9-0.6-3.6-1.6-5.1-3
		c-1.6-1.4-2.9-3.2-3.9-5.5c-1-2.3-1.5-5.1-1.5-8.5c0-6.1,2-11.6,6.1-16.6c0-0.4-0.3-0.7-1-0.9c-0.7-0.2-1.5-0.5-2.6-0.7
		c-1.1-0.2-2.3-0.4-3.5-0.5c-1.3-0.1-2.4-0.2-3.5-0.2c-6,0-10.9,1.7-14.8,5.1c-3.8,3.4-5.8,8-5.8,13.6c0,3.6,0.8,6.8,2.4,9.7
		c1.6,2.9,3.6,5.5,5.8,7.7c2.3,2.3,4.7,4.2,7.4,5.9c2.6,1.6,4.9,3,6.8,4c6.2,3.5,11.9,6.8,16.9,9.9c5,3.1,9.3,6.4,12.8,9.7
		c3.5,3.4,6.2,7,8.1,10.8c1.9,3.8,2.9,8.2,2.9,13.1c0,6-1.4,11.3-4.1,15.8c-2.8,4.6-6.4,8.4-10.9,11.5c-4.5,3.1-9.6,5.5-15.4,7
		c-5.8,1.6-11.6,2.3-17.6,2.3c-5.2,0-10.5-0.6-15.9-1.7c-5.5-1.1-10.4-2.9-14.9-5.2c-4.5-2.3-8.2-5.2-11.2-8.7
		c-2.9-3.5-4.4-7.6-4.4-12.2c0-2,0.3-4.1,0.9-6.1c0.6-2,1.5-3.9,2.7-5.5c1.2-1.6,2.7-2.9,4.5-4c1.8-1,3.9-1.5,6.3-1.5
		c1.8,0,3.7,0.3,5.7,1c2,0.7,3.8,1.7,5.6,3.1c1.7,1.4,3.2,3.2,4.2,5.3c1.1,2.2,1.6,4.8,1.6,7.9c0,2.4-0.5,5.1-1.4,8.1
		c-0.9,3-2.4,5.6-4.6,7.7c-0.5,0.5-0.7,0.9-0.7,1.3c0,0.8,0.6,1.6,1.8,2.3c1.2,0.7,2.7,1.3,4.5,1.9s3.8,1,6,1.4
		C781.7,516,783.9,516.2,786,516.2z"/>
	<path d="M857.3,439c-1.6,0-3.3,0.6-5.2,1.7c-1.9,1.1-3.8,2.7-5.8,4.6c0-2.3,0.6-4.5,1.9-6.7c1.3-2.2,2.9-4.1,5-5.9
		c2.1-1.7,4.6-3.1,7.4-4.1c2.8-1,5.8-1.5,8.9-1.5c2.5,0,5,0.4,7.6,1.1c2.5,0.7,4.8,1.8,6.8,3.3c2,1.5,3.6,3.4,4.8,5.7
		c1.2,2.3,1.8,4.9,1.8,7.9V500c0,2.6,0.1,5,0.2,6.9c0.1,2,0.5,3.6,1.2,4.8c0.7,1.2,1.7,2.1,3.2,2.7c1.5,0.6,3.6,0.9,6.2,0.9v2.7
		h-50.4v-2.7c2.8,0,4.9-0.3,6.3-0.9c1.4-0.6,2.5-1.5,3.2-2.7c0.7-1.2,1-2.8,1.2-4.8c0.1-2,0.2-4.3,0.2-6.9v-54.9
		c0-2.3-0.4-3.9-1.3-4.8C859.5,439.4,858.5,439,857.3,439z M860.7,406.4c0-2,0.4-4,1.3-5.9c0.8-1.9,1.9-3.5,3.3-4.9
		c1.4-1.4,3-2.5,4.9-3.3c1.9-0.8,3.8-1.3,5.9-1.3c2,0,4,0.4,5.8,1.3c1.9,0.8,3.5,2,4.9,3.3c1.4,1.4,2.5,3,3.3,4.9
		c0.8,1.9,1.3,3.8,1.3,5.9c0,2-0.4,4-1.3,5.8c-0.8,1.9-2,3.5-3.3,4.9c-1.4,1.4-3,2.5-4.9,3.3c-1.9,0.8-3.8,1.3-5.8,1.3
		c-2,0-4-0.4-5.9-1.3c-1.9-0.8-3.5-1.9-4.9-3.3c-1.4-1.4-2.5-3-3.3-4.9C861.2,410.4,860.7,408.4,860.7,406.4z"/>
	<path d="M907.4,445.3c0-2.3,0.6-4.5,1.9-6.7c1.3-2.2,2.9-4.1,5-5.9c2.1-1.7,4.6-3.1,7.4-4.1c2.8-1,5.8-1.5,8.9-1.5
		c4.2,0,8.2,1,11.9,2.9c3.7,1.9,6.3,4.8,7.7,8.6c5.9-8.9,14.7-13.3,26.5-13.3c3.4,0,6.7,0.3,10,1c3.3,0.7,6.4,1.6,9.2,2.9
		c2.8,1.3,5.3,2.8,7.4,4.5c2.1,1.7,3.7,3.6,4.8,5.7c3.1-4.8,6.9-8.3,11.3-10.6c4.4-2.3,9.4-3.4,14.8-3.4c4.9,0,9.5,0.8,13.7,2.5
		c4.2,1.7,7.8,3.9,10.9,6.7c3.1,2.8,5.5,5.9,7.2,9.4c1.7,3.5,2.6,7.2,2.6,11.1v45c0,2.3,0.5,4,1.4,5.2c0.9,1.2,2,1.8,3.3,1.8
		c1.3,0,2.9-0.6,4.9-1.7c1.9-1.1,3.8-2.7,5.8-4.6c0,2.3-0.6,4.5-1.9,6.7c-1.3,2.2-2.9,4.1-4.9,5.9c-2,1.7-4.4,3.1-7.2,4.1
		c-2.8,1-5.7,1.5-8.8,1.5c-2.6,0-5.3-0.4-7.8-1.3c-2.6-0.8-4.9-2.1-6.8-3.7c-2-1.6-3.6-3.6-4.8-5.9c-1.2-2.3-1.8-5-1.8-8v-45
		c0-4.1-0.4-7.6-1.3-10.5c-0.8-2.9-1.9-5.4-3.2-7.3c-1.3-1.9-2.9-3.3-4.6-4.2c-1.7-0.9-3.5-1.4-5.1-1.4c-1.9,0-3.7,0.5-5.3,1.4
		c-1.6,0.9-3.1,2.1-4.3,3.5s-2.4,3-3.4,4.7c-1,1.7-1.8,3.3-2.4,4.9v54c0,2.6,0.1,5,0.2,6.9c0.1,2,0.5,3.6,1.2,4.8
		c0.7,1.2,1.7,2.1,3.2,2.7c1.5,0.6,3.6,0.9,6.2,0.9v2.7h-50.4v-2.7c2.8,0,4.9-0.3,6.3-0.9c1.4-0.6,2.5-1.5,3.2-2.7
		c0.7-1.2,1-2.8,1.2-4.8c0.1-2,0.2-4.3,0.2-6.9v-45c0-4.1-0.4-7.6-1.3-10.5c-0.8-2.9-1.9-5.4-3.2-7.3c-1.3-1.9-2.8-3.3-4.5-4.2
		c-1.7-0.9-3.4-1.4-5-1.4c-1.9,0-3.7,0.5-5.3,1.4c-1.6,0.9-3.1,2.1-4.4,3.5c-1.3,1.4-2.5,3-3.5,4.7c-1,1.7-1.8,3.4-2.4,5V500
		c0,2.6,0.1,5,0.2,6.9c0.1,2,0.5,3.6,1.2,4.8c0.7,1.2,1.7,2.1,3.2,2.7c1.5,0.6,3.6,0.9,6.2,0.9v2.7h-50.4v-2.7
		c2.8,0,4.9-0.3,6.3-0.9c1.4-0.6,2.5-1.5,3.2-2.7c0.7-1.2,1-2.8,1.2-4.8c0.1-2,0.2-4.3,0.2-6.9v-54.9c0-2.3-0.4-3.9-1.3-4.8
		c-0.8-0.9-1.9-1.3-3.1-1.3c-1.6,0-3.3,0.6-5.2,1.7C911.2,441.8,909.3,443.3,907.4,445.3z"/>
	<path d="M1089.7,445.3c0-2.3,0.6-4.5,1.8-6.7c1.2-2.2,2.8-4.1,4.8-5.9c2-1.7,4.2-3.1,6.8-4.1c2.5-1,5.1-1.5,7.7-1.5
		c2.5,0,4.9,0.5,7,1.4c2.2,1,4.1,2.2,5.8,3.6c1.7,1.4,3.1,3,4.3,4.7c1.2,1.7,2,3.2,2.5,4.7c0.1,0.1,0.2,0.2,0.2,0.4
		c0,0.1,0.1,0.2,0.2,0.4c2.6-5.4,6.3-9.6,10.9-12.5c4.6-2.9,10-4.4,16.1-4.4c4.9,0,9.6,1,14,3.1c4.4,2,8.3,5.1,11.6,9.2
		c3.3,4.1,5.9,9.1,7.8,15c1.9,5.9,2.9,12.9,2.9,20.8c0,7.8-1,14.6-2.9,20.5c-1.9,5.9-4.6,10.8-8,14.8s-7.5,7-12.2,9
		c-4.7,2-9.9,3.1-15.6,3.1c-3.6,0-6.7-0.4-9.4-1.1c-2.6-0.7-4.9-1.6-6.7-2.5c-1-0.5-1.9-1-2.8-1.6c-0.9-0.6-1.8-1.3-2.8-2V536
		c0,2.8,0.1,5.1,0.2,7c0.1,1.9,0.5,3.5,1.2,4.7c0.7,1.2,1.7,2.1,3.2,2.7c1.5,0.6,3.6,0.9,6.2,0.9v2.7h-50.4v-2.7
		c2.8,0,4.9-0.3,6.3-0.9c1.4-0.6,2.5-1.5,3.2-2.7c0.7-1.2,1-2.8,1.2-4.7c0.1-1.9,0.2-4.3,0.2-7v-90c0-2.3-0.5-4-1.3-5.2
		c-0.9-1.2-2-1.8-3.3-1.8c-1.3,0-2.9,0.6-4.9,1.7C1093.5,441.8,1091.6,443.3,1089.7,445.3z M1133.8,507.5c1.9,1.8,4,3.5,6.3,5
		c2.3,1.6,5,2.3,8.1,2.3c2,0,4-0.5,5.8-1.6c1.9-1.1,3.5-3.1,4.9-6.1c1.4-3,2.5-7.2,3.3-12.5c0.8-5.3,1.3-12.3,1.3-21
		c0-8.8-0.4-15.9-1.3-21.3c-0.8-5.5-1.9-9.7-3.2-12.8c-1.3-3.1-2.8-5.1-4.5-6.2c-1.7-1.1-3.4-1.6-5.2-1.6c-1.9,0-3.7,0.5-5.2,1.3
		c-1.6,0.9-3,2-4.2,3.4c-1.3,1.4-2.4,2.9-3.4,4.6c-1,1.7-1.9,3.4-2.6,5V507.5z"/>
	<path d="M1213.7,403c-1.6,0-3.3,0.6-5.2,1.7c-1.9,1.1-3.8,2.7-5.8,4.6c0-2.3,0.6-4.5,1.9-6.7c1.3-2.2,2.9-4.1,5-5.9
		c2.1-1.7,4.6-3.1,7.4-4.1c2.8-1,5.8-1.5,8.9-1.5c2.5,0,5,0.4,7.6,1.1c2.5,0.7,4.8,1.8,6.8,3.3c2,1.5,3.6,3.4,4.8,5.7
		c1.2,2.3,1.8,4.9,1.8,7.9V500c0,2.6,0.1,5,0.2,6.9c0.1,2,0.5,3.6,1.2,4.8c0.7,1.2,1.7,2.1,3.2,2.7c1.5,0.6,3.6,0.9,6.2,0.9v2.7
		h-50.4v-2.7c2.8,0,4.9-0.3,6.3-0.9c1.4-0.6,2.5-1.5,3.2-2.7c0.7-1.2,1-2.8,1.2-4.8c0.1-2,0.2-4.3,0.2-6.9v-90.9
		c0-2.3-0.4-3.9-1.3-4.8C1215.9,403.4,1214.9,403,1213.7,403z"/>
	<path d="M1321.2,520.7c-8,0-15.2-1.2-21.5-3.6c-6.3-2.4-11.6-5.8-15.9-10.1c-4.3-4.3-7.6-9.5-9.8-15.5c-2.2-6-3.3-12.6-3.3-19.8
		s1.1-13.6,3.2-19.4c2.2-5.7,5.4-10.6,9.6-14.6c4.3-4,9.5-7.1,15.7-9.3c6.2-2.2,13.2-3.2,21.2-3.2c3.5,0,7.4,0.5,11.9,1.4
		c4.4,0.9,8.6,2.4,12.6,4.4c4,2,7.3,4.7,10,8.1c2.7,3.4,4,7.5,4,12.4c0,4.1-1,7.6-3,10.5c-2,2.9-4.6,5.4-7.8,7.3
		c-3.2,1.9-6.9,3.4-11,4.5c-4.1,1.1-8.3,1.9-12.5,2.4c-4.3,0.5-8.4,0.9-12.5,1c-4.1,0.1-7.7,0.2-10.8,0.2c0.1,7.9,0.5,14.4,1.2,19.3
		c0.7,5,1.7,8.8,3.1,11.5c1.4,2.7,3.4,4.5,5.8,5.5c2.4,1,5.3,1.4,8.6,1.4c6.2,0,12.7-1.2,19.3-3.6c6.7-2.4,12.4-6,17.2-10.8
		c0,2.3-0.8,4.6-2.3,6.9c-1.5,2.3-3.7,4.5-6.7,6.4c-2.9,1.9-6.6,3.5-11,4.7C1332.2,520.1,1327.1,520.7,1321.2,520.7z M1301.2,473
		c3.6-0.2,7.1-0.6,10.4-1.2c3.4-0.5,6.3-1.6,8.9-3.2c2.6-1.6,4.6-3.8,6.2-6.7c1.6-2.9,2.3-6.7,2.3-11.5c0-2.5-0.2-5-0.7-7.6
		c-0.5-2.5-1.2-4.7-2.3-6.7c-1-1.9-2.3-3.5-3.9-4.7c-1.6-1.2-3.4-1.8-5.6-1.8s-4.2,0.7-6,2.1c-1.9,1.4-3.5,3.8-4.9,7.1
		c-1.4,3.4-2.5,7.8-3.3,13.3C1301.6,457.8,1301.2,464.7,1301.2,473z"/>
	<path d="M1473.5,516.2c7.4,0,13.3-2,17.6-5.9c4.3-4,6.4-9.1,6.4-15.3c0-2.6-0.5-5.1-1.4-7.4c-1-2.3-2.7-4.6-5.2-7.1
		c-2.5-2.5-6-5.2-10.4-8.1c-4.4-2.9-10.1-6.4-17.1-10.4c-2.6-1.6-5.7-3.4-9.2-5.7c-3.5-2.2-6.7-4.9-9.7-8.1c-3-3.2-5.6-6.9-7.6-11.2
		c-2.1-4.3-3.2-9.1-3.2-14.7c0-4.7,0.8-9,2.5-13c1.7-4,4.3-7.5,7.8-10.5c3.5-3,8.1-5.3,13.6-7c5.5-1.7,12.1-2.5,19.8-2.5
		c5.3,0,10.3,0.5,15.1,1.4c4.8,0.9,9.1,2.3,12.9,4.2c3.8,1.9,6.8,4.4,9,7.5c2.2,3.1,3.3,6.8,3.3,11.3c0,2.9-0.5,5.4-1.4,7.6
		c-1,2.2-2.2,4-3.7,5.5c-1.5,1.5-3.2,2.6-5,3.3c-1.9,0.7-3.8,1.1-5.7,1.1c-1.6,0-3.3-0.3-5.1-0.9c-1.9-0.6-3.6-1.6-5.1-3
		c-1.6-1.4-2.9-3.2-3.9-5.5c-1-2.3-1.5-5.1-1.5-8.5c0-6.1,2-11.6,6.1-16.6c0-0.4-0.3-0.7-1-0.9c-0.7-0.2-1.5-0.5-2.6-0.7
		c-1.1-0.2-2.3-0.4-3.5-0.5c-1.3-0.1-2.4-0.2-3.5-0.2c-6,0-10.9,1.7-14.8,5.1c-3.8,3.4-5.8,8-5.8,13.6c0,3.6,0.8,6.8,2.4,9.7
		c1.6,2.9,3.6,5.5,5.8,7.7c2.3,2.3,4.7,4.2,7.4,5.9c2.6,1.6,4.9,3,6.8,4c6.2,3.5,11.9,6.8,16.9,9.9c5,3.1,9.3,6.4,12.8,9.7
		c3.5,3.4,6.2,7,8.1,10.8c1.9,3.8,2.9,8.2,2.9,13.1c0,6-1.4,11.3-4.1,15.8c-2.8,4.6-6.4,8.4-10.9,11.5c-4.5,3.1-9.6,5.5-15.4,7
		c-5.8,1.6-11.6,2.3-17.6,2.3c-5.2,0-10.5-0.6-15.9-1.7c-5.5-1.1-10.4-2.9-14.9-5.2c-4.5-2.3-8.2-5.2-11.2-8.7
		c-2.9-3.5-4.4-7.6-4.4-12.2c0-2,0.3-4.1,0.9-6.1c0.6-2,1.5-3.9,2.7-5.5c1.2-1.6,2.7-2.9,4.5-4c1.8-1,3.9-1.5,6.3-1.5
		c1.8,0,3.7,0.3,5.7,1c2,0.7,3.8,1.7,5.6,3.1c1.7,1.4,3.2,3.2,4.2,5.3c1.1,2.2,1.6,4.8,1.6,7.9c0,2.4-0.5,5.1-1.4,8.1
		c-0.9,3-2.4,5.6-4.6,7.7c-0.5,0.5-0.7,0.9-0.7,1.3c0,0.8,0.6,1.6,1.8,2.3c1.2,0.7,2.7,1.3,4.5,1.9s3.8,1,6,1.4
		C1469.1,516,1471.3,516.2,1473.5,516.2z"/>
	<path d="M1588.5,425.3c7.4,0,14.1,1.1,20.1,3.2c5.9,2.2,11,5.3,15.1,9.5c4.1,4.1,7.3,9.2,9.5,15c2.2,5.9,3.3,12.5,3.3,20
		c0,7.4-1.1,14.1-3.3,20c-2.2,5.9-5.4,10.9-9.5,15c-4.1,4.1-9.2,7.3-15.1,9.5c-5.9,2.2-12.6,3.2-20.1,3.2c-7.4,0-14.1-1.1-20.1-3.2
		c-5.9-2.2-11-5.3-15.1-9.5c-4.1-4.1-7.3-9.1-9.5-15c-2.2-5.9-3.3-12.5-3.3-20c0-7.4,1.1-14.1,3.3-20c2.2-5.9,5.4-10.9,9.5-15
		c4.1-4.1,9.2-7.3,15.1-9.5C1574.3,426.4,1581,425.3,1588.5,425.3z M1588.5,516.2c2,0,4.1-0.6,6.1-1.8c2-1.2,3.9-3.4,5.6-6.7
		c1.7-3.2,3.1-7.7,4.1-13.2s1.6-12.7,1.6-21.5c0-8.8-0.5-15.9-1.6-21.5s-2.5-10-4.1-13.2c-1.7-3.2-3.5-5.5-5.6-6.7
		c-2-1.2-4.1-1.8-6.1-1.8c-2,0-4.1,0.6-6.1,1.8c-2,1.2-3.9,3.4-5.6,6.7c-1.7,3.2-3.1,7.7-4.1,13.2s-1.6,12.8-1.6,21.5
		c0,8.8,0.5,15.9,1.6,21.5s2.5,10,4.1,13.2c1.7,3.2,3.5,5.5,5.6,6.7C1584.4,515.6,1586.4,516.2,1588.5,516.2z"/>
	<path d="M1655.3,403c-1.6,0-3.3,0.6-5.2,1.7c-1.9,1.1-3.8,2.7-5.8,4.6c0-2.3,0.6-4.5,1.9-6.7c1.3-2.2,2.9-4.1,5-5.9
		c2.1-1.7,4.6-3.1,7.4-4.1c2.8-1,5.8-1.5,8.9-1.5c2.5,0,5,0.4,7.6,1.1c2.5,0.7,4.8,1.8,6.8,3.3c2,1.5,3.6,3.4,4.8,5.7
		c1.2,2.3,1.8,4.9,1.8,7.9V500c0,2.6,0.1,5,0.2,6.9c0.1,2,0.5,3.6,1.2,4.8c0.7,1.2,1.7,2.1,3.2,2.7c1.5,0.6,3.6,0.9,6.2,0.9v2.7
		h-50.4v-2.7c2.8,0,4.9-0.3,6.3-0.9c1.4-0.6,2.5-1.5,3.2-2.7c0.7-1.2,1-2.8,1.2-4.8c0.1-2,0.2-4.3,0.2-6.9v-90.9
		c0-2.3-0.4-3.9-1.3-4.8C1657.5,403.4,1656.4,403,1655.3,403z"/>
	<path d="M1719.9,439c-1.3,0-2.9,0.6-4.9,1.7c-1.9,1.1-3.8,2.7-5.8,4.6c0-2.3,0.6-4.5,1.9-6.7c1.3-2.2,2.9-4.1,5-5.9
		c2-1.7,4.5-3.1,7.3-4.1c2.8-1,5.7-1.5,8.7-1.5c2.6,0,5.2,0.4,7.8,1.3c2.6,0.8,4.9,2.1,6.8,3.7c2,1.6,3.6,3.6,4.8,5.9
		c1.2,2.3,1.8,5,1.8,8v45c0,4.1,0.4,7.6,1.3,10.5c0.8,2.9,1.9,5.4,3.2,7.3c1.3,1.9,2.8,3.3,4.5,4.2c1.7,0.9,3.4,1.4,5,1.4
		c1.9,0,3.7-0.5,5.3-1.4c1.6-0.9,3.1-2.1,4.4-3.5c1.3-1.4,2.5-3,3.5-4.8c1-1.7,1.8-3.4,2.4-4.9V446c0-2.3-0.5-4-1.3-5.2
		c-0.9-1.2-2-1.8-3.3-1.8c-1.3,0-2.9,0.6-4.9,1.7c-1.9,1.1-3.8,2.7-5.8,4.6c0-2.3,0.6-4.5,1.9-6.7c1.3-2.2,2.9-4.1,5-5.9
		c2-1.7,4.5-3.1,7.3-4.1c2.8-1,5.7-1.5,8.7-1.5c2.6,0,5.2,0.4,7.8,1.3c2.6,0.8,4.9,2.1,6.8,3.7c2,1.6,3.6,3.6,4.8,5.9
		c1.2,2.3,1.8,5,1.8,8v54.9c0,2.3,0.4,3.9,1.3,4.8c0.8,0.9,1.9,1.3,3.1,1.3c1.6,0,3.3-0.6,5.2-1.7c1.9-1.1,3.8-2.7,5.8-4.6
		c0,2.3-0.6,4.5-1.9,6.7c-1.3,2.2-2.9,4.1-5,5.9c-2.1,1.7-4.6,3.1-7.4,4.1c-2.8,1-5.8,1.5-8.9,1.5c-4.2,0-8.2-1-11.9-2.9
		c-3.7-1.9-6.3-4.8-7.7-8.6c-3,4.6-6.7,7.9-11,10.1s-9.2,3.2-14.6,3.2c-4.9,0-9.5-0.8-13.7-2.5c-4.2-1.7-7.8-3.9-10.9-6.7
		c-3.1-2.8-5.4-5.9-7.1-9.5c-1.7-3.6-2.5-7.3-2.5-11v-45c0-2.3-0.5-4-1.3-5.2C1722.3,439.6,1721.2,439,1719.9,439z"/>
	<path d="M1854,391.1c2.5,0,5,0.4,7.6,1.1c2.5,0.7,4.8,1.8,6.8,3.3c2,1.5,3.6,3.4,4.8,5.7c1.2,2.3,1.8,4.9,1.8,7.9V428h27v4.5h-27
		v62.1c0,1.6,0.1,3.5,0.2,5.9c0.1,2.3,0.6,4.6,1.4,6.8c0.8,2.2,2.2,4,4.1,5.6c1.9,1.6,4.5,2.3,7.8,2.3c4.3,0,8.7-1.3,13-4
		c4.4-2.6,8.7-6.1,12.9-10.3c0,2.3-0.5,4.6-1.6,6.9s-2.9,4.5-5.4,6.4c-2.5,1.9-5.8,3.5-9.9,4.7c-4.1,1.2-9.1,1.8-15.1,1.8
		c-10.8,0-19.5-2.2-26.2-6.5c-6.7-4.3-10-10.9-10-19.6v-62.1h-10.8V428h10.8v-18.9c0-2.3-0.4-3.9-1.3-4.8c-0.8-0.9-1.9-1.3-3.1-1.3
		c-1.6,0-3.3,0.6-5.2,1.7c-1.9,1.1-3.8,2.7-5.8,4.6c0-2.3,0.6-4.5,1.9-6.7c1.3-2.2,2.9-4.1,5-5.9c2.1-1.7,4.6-3.1,7.4-4.1
		C1847.9,391.6,1850.8,391.1,1854,391.1z"/>
	<path d="M1928.3,439c-1.6,0-3.3,0.6-5.2,1.7c-1.9,1.1-3.8,2.7-5.8,4.6c0-2.3,0.6-4.5,1.9-6.7s2.9-4.1,5-5.9
		c2.1-1.7,4.6-3.1,7.4-4.1c2.8-1,5.8-1.5,8.9-1.5c2.5,0,5,0.4,7.6,1.1c2.5,0.7,4.8,1.8,6.8,3.3c2,1.5,3.6,3.4,4.8,5.7
		c1.2,2.3,1.8,4.9,1.8,7.9V500c0,2.6,0.1,5,0.2,6.9c0.1,2,0.5,3.6,1.2,4.8c0.7,1.2,1.7,2.1,3.2,2.7c1.5,0.6,3.6,0.9,6.2,0.9v2.7
		h-50.4v-2.7c2.8,0,4.9-0.3,6.3-0.9c1.4-0.6,2.5-1.5,3.1-2.7c0.7-1.2,1-2.8,1.2-4.8c0.1-2,0.2-4.3,0.2-6.9v-54.9
		c0-2.3-0.4-3.9-1.3-4.8C1930.5,439.4,1929.5,439,1928.3,439z M1931.7,406.4c0-2,0.4-4,1.3-5.9c0.8-1.9,1.9-3.5,3.3-4.9
		c1.4-1.4,3-2.5,4.9-3.3c1.9-0.8,3.8-1.3,5.8-1.3c2,0,4,0.4,5.9,1.3c1.9,0.8,3.5,2,4.9,3.3c1.4,1.4,2.5,3,3.3,4.9
		c0.8,1.9,1.3,3.8,1.3,5.9c0,2-0.4,4-1.3,5.8c-0.8,1.9-2,3.5-3.3,4.9c-1.4,1.4-3,2.5-4.9,3.3c-1.9,0.8-3.8,1.3-5.9,1.3
		c-2,0-4-0.4-5.8-1.3c-1.9-0.8-3.5-1.9-4.9-3.3c-1.4-1.4-2.5-3-3.3-4.9C1932.1,410.4,1931.7,408.4,1931.7,406.4z"/>
	<path d="M2032.3,425.3c7.4,0,14.1,1.1,20.1,3.2c5.9,2.2,11,5.3,15.1,9.5c4.1,4.1,7.3,9.2,9.5,15c2.2,5.9,3.3,12.5,3.3,20
		c0,7.4-1.1,14.1-3.3,20c-2.2,5.9-5.4,10.9-9.5,15c-4.1,4.1-9.2,7.3-15.1,9.5c-5.9,2.2-12.6,3.2-20.1,3.2c-7.4,0-14.1-1.1-20.1-3.2
		c-5.9-2.2-11-5.3-15.1-9.5c-4.1-4.1-7.3-9.1-9.5-15c-2.2-5.9-3.3-12.5-3.3-20c0-7.4,1.1-14.1,3.3-20c2.2-5.9,5.4-10.9,9.5-15
		c4.1-4.1,9.2-7.3,15.1-9.5C2018.2,426.4,2024.9,425.3,2032.3,425.3z M2032.3,516.2c2,0,4.1-0.6,6.1-1.8c2-1.2,3.9-3.4,5.6-6.7
		c1.7-3.2,3.1-7.7,4.1-13.2c1.1-5.6,1.6-12.7,1.6-21.5c0-8.8-0.5-15.9-1.6-21.5c-1.1-5.6-2.5-10-4.1-13.2c-1.7-3.2-3.5-5.5-5.6-6.7
		c-2-1.2-4.1-1.8-6.1-1.8c-2,0-4.1,0.6-6.1,1.8c-2,1.2-3.9,3.4-5.6,6.7c-1.7,3.2-3.1,7.7-4.1,13.2s-1.6,12.8-1.6,21.5
		c0,8.8,0.5,15.9,1.6,21.5s2.5,10,4.1,13.2c1.7,3.2,3.5,5.5,5.6,6.7C2028.3,515.6,2030.3,516.2,2032.3,516.2z"/>
	<path d="M2104.3,439c-1.6,0-3.3,0.6-5.2,1.7c-1.9,1.1-3.8,2.7-5.8,4.6c0-2.3,0.6-4.5,1.9-6.7c1.3-2.2,2.9-4.1,5-5.9
		c2.1-1.7,4.6-3.1,7.4-4.1c2.8-1,5.8-1.5,8.9-1.5c4.2,0,8.2,1,11.9,2.9c3.7,1.9,6.3,4.8,7.7,8.6c3-4.6,6.7-7.9,11-10.1
		s9.2-3.2,14.6-3.2c4.9,0,9.5,0.8,13.7,2.5c4.2,1.7,7.8,3.9,10.9,6.7c3.1,2.8,5.4,5.9,7.1,9.4c1.7,3.5,2.5,7.2,2.5,11.1v45
		c0,2.3,0.5,4,1.3,5.2c0.9,1.2,2,1.8,3.3,1.8c1.3,0,2.9-0.6,4.9-1.7c1.9-1.1,3.8-2.7,5.8-4.6c0,2.3-0.6,4.5-1.9,6.7
		c-1.3,2.2-2.9,4.1-5,5.9c-2,1.7-4.4,3.1-7.2,4.1c-2.8,1-5.7,1.5-8.8,1.5c-2.6,0-5.3-0.4-7.8-1.3c-2.6-0.8-4.9-2.1-6.8-3.7
		c-2-1.6-3.6-3.6-4.8-5.9c-1.2-2.3-1.8-5-1.8-8v-45c0-4.1-0.4-7.6-1.3-10.5c-0.8-2.9-1.9-5.4-3.2-7.3c-1.3-1.9-2.8-3.3-4.5-4.2
		c-1.7-0.9-3.4-1.4-5-1.4c-1.9,0-3.7,0.5-5.3,1.4c-1.6,0.9-3.1,2.1-4.4,3.5c-1.3,1.4-2.5,3-3.5,4.7c-1,1.7-1.8,3.4-2.4,5V500
		c0,2.6,0.1,5,0.2,6.9c0.1,2,0.5,3.6,1.2,4.8c0.7,1.2,1.7,2.1,3.2,2.7c1.5,0.6,3.6,0.9,6.2,0.9v2.7h-50.4v-2.7
		c2.8,0,4.9-0.3,6.3-0.9c1.4-0.6,2.5-1.5,3.1-2.7c0.7-1.2,1-2.8,1.2-4.8c0.1-2,0.2-4.3,0.2-6.9v-54.9c0-2.3-0.4-3.9-1.3-4.8
		C2106.6,439.4,2105.5,439,2104.3,439z"/>
	<path d="M2252.1,492.2c0,3.5-1,7.1-3.1,10.8c-0.2,0.5-0.5,1-0.7,1.5c-0.2,0.5-0.4,1.2-0.4,1.9c0,1.6,0.5,2.9,1.6,4
		c1.1,1.1,2.5,2,4.1,2.6c1.7,0.7,3.5,1.1,5.4,1.4c1.9,0.3,3.7,0.5,5.4,0.5c4.2,0,7.8-0.9,10.8-2.7c3-1.8,4.5-5,4.5-9.5
		c0-2-0.3-3.8-1-5.4c-0.7-1.6-1.8-3.1-3.3-4.5c-1.6-1.4-3.5-2.9-5.9-4.3c-2.4-1.4-5.3-3.1-8.8-4.9c-6.4-3.2-11.7-6.2-15.9-9
		c-4.3-2.8-7.6-5.4-10.2-7.9c-2.5-2.5-4.3-5-5.4-7.5c-1.1-2.5-1.6-5.1-1.6-7.8c0-3.8,0.9-7.3,2.7-10.5c1.8-3.2,4.4-5.9,7.7-8.3
		c3.4-2.3,7.4-4.1,12.2-5.4c4.7-1.3,10-1.9,15.9-1.9c5.3,0,10.4,0.5,15.2,1.6c4.9,1.1,9.1,2.7,12.8,4.9c3.7,2.2,6.6,4.8,8.7,8
		c2.2,3.2,3.2,6.8,3.2,10.9c0,4.3-1.2,7.8-3.6,10.5c-2.4,2.7-5.6,4-9.5,4c-3.8,0-7.1-1.2-9.7-3.6c-2.6-2.4-4-5.7-4-9.9
		c0-2.5,0.4-4.7,1.2-6.7c0.8-1.9,1.5-3.4,2.1-4.3c1-1.9,1.4-3.1,1.4-3.6c0-1.2-1.2-2.7-3.6-4.5c-2.4-1.8-5.5-2.7-9.2-2.7
		c-3.8,0-7.1,1.2-9.8,3.5s-4,5.3-4,8.9c0,2.4,0.6,4.6,1.8,6.6c1.2,2,2.6,3.7,4.3,5.2c1.7,1.5,3.4,2.8,5.3,3.9c1.9,1.1,3.4,2,4.8,2.7
		c7.2,3.7,13.1,7.1,17.6,10.2c4.6,3.1,8.2,5.9,10.8,8.4c2.6,2.5,4.5,4.9,5.5,7.2c1,2.3,1.5,4.6,1.5,7c0,4-1.1,7.6-3.4,11
		c-2.3,3.4-5.4,6.2-9.4,8.6c-4,2.4-8.6,4.3-13.9,5.6c-5.3,1.3-10.9,2-16.9,2c-4.7,0-9.5-0.5-14.3-1.4c-4.9-1-9.3-2.5-13.3-4.6
		c-4-2.1-7.3-4.9-9.8-8.3c-2.5-3.4-3.8-7.6-3.8-12.5c0-4.8,1.3-8.7,3.8-11.6c2.5-2.9,6.1-4.4,10.6-4.4c4.6,0,7.9,1.4,10.2,4.1
		C2251,484.7,2252.1,488.2,2252.1,492.2z"/>
</g>
<polygon points="543.7,242.4 546.6,242.4 543.7,238.6 "/>
<polygon points="71.7,209.7 71.7,242.4 89.4,242.4 72.6,209.7 "/>
<rect x="-2.7" y="263.1" width="74.4" height="82.2"/>
<polygon points="142.7,345.7 229.7,345.7 182.9,263.1 100.1,263.1 "/>
<path d="M71.7,209.7h0.9l16.9,32.7h81.7l-16.6-29.3c14.8-5.6,26.6-15.7,35.3-30.4c8.8-14.8,13.3-30.4,13.3-46.6
	c0-22.1-5.1-40.1-15.2-54.1c-10.3-14-24.5-24-42.6-30.2c-18.4-6.3-39.6-9.4-63.5-9.4H-2.7v199.9h74.4V209.7z M71.7,106.8
	c19,0,33.2,2.9,42.8,8.6c9.4,5.7,14.1,16.4,14.1,32.1c0,10.4-2.2,18.9-6.6,25.5c-4.7,6.8-11.1,11.6-19,14.3
	c-8.3,3-18.7,4.5-31.2,4.5V106.8z"/>
<path d="M379.2,274.5C368,285.5,354.6,291,339,291c-15.4,0-28.7-5.5-40-16.5c-3.7-3.6-6.8-7.4-9.3-11.4H217
	c2.8,11.5,7.5,22.2,14,32.3c11.4,17.8,26.8,31.9,46.2,42.1c19.4,10.3,40,15.4,61.8,15.4c16.7,0,32.5-2.9,47.5-8.8
	c14.8-5.6,28.3-13.8,40.4-24.6c12-11,21.2-23.6,27.8-37.9c2.8-6,4.9-12.2,6.5-18.7h-72.7C386,267.2,382.9,271,379.2,274.5z"/>
<path d="M281.9,235.2c0-10,2.6-19.2,7.9-27.6c5.3-8.4,12.3-15.1,21.2-20.1c8.8-5,18.2-7.5,28-7.5c10.1,0,19.5,2.5,28.2,7.5
	c8.8,5,15.9,11.7,21.2,20.1c5.3,8.4,7.9,17.6,7.9,27.6c0,2.5-0.2,4.9-0.5,7.2h68.5c0.1-2.4,0.2-4.8,0.2-7.2
	c0-16.7-3.4-32.2-10.1-46.6c-6.6-14.3-15.8-26.8-27.6-37.6c-12-10.8-25.5-19-40.4-24.4c-15.4-5.7-31.2-8.6-47.5-8.6
	c-16.1,0-31.9,2.9-47.3,8.6c-15.1,5.7-28.6,13.9-40.4,24.6c-11.7,10.6-20.9,23-27.6,37.4c-6.7,14.4-10.1,29.9-10.1,46.6
	c0,2.4,0.1,4.8,0.2,7.2h68.5C282.1,240,281.9,237.6,281.9,235.2z"/>
<polygon points="543.7,238.6 546.6,242.4 632.3,242.4 616.4,221.1 695.5,127.2 615.3,127.2 544.6,210.1 543.7,210.1 543.7,42.5 
	475.3,42.7 475.3,242.4 543.7,242.4 "/>
<rect x="475.3" y="263.1" width="68.4" height="82.8"/>
<polygon points="624.1,346 709.5,346 647.8,263.1 562.1,263.1 "/>
<path d="M921.4,239.2c0.1-0.9,0.2-1.6,0.2-2.4V235c0-16.4-3.2-31.8-9.6-46.2c-6.4-14.5-15.3-27-26.5-37.4
	c-11.4-10.7-24.3-18.8-38.7-24.4c-14.5-5.7-29.7-8.6-45.3-8.6c-15.7,0-30.9,2.9-45.6,8.6c-14.3,5.6-27.1,13.8-38.5,24.6
	c-11.3,10.6-20.1,23-26.5,37.2c-6.4,14.1-9.6,29.5-9.6,46.2c0,2.5,0.1,5,0.2,7.4H921L921.4,239.2z M759.5,200.7
	c4.8-5.7,9.8-10.1,15-13.3c8.4-4.8,17.4-7.3,26.9-7.3c9.6,0,18.5,2.4,26.9,7.3c5.1,3.1,10.1,7.6,15,13.3H759.5z"/>
<path d="M697.9,295.1c10.8,17.8,25.6,31.9,44.3,42.1c18.2,10.1,38,15.2,59.2,15.2c15.7,0,30.8-2.9,45.3-8.6
	c10.8-4.4,21.5-10.9,32.1-19.5L842,271.7l-0.4,0.6L841,273l-0.6,0.9l-0.4,0.4c-10.8,10.8-23.7,16.3-38.5,16.3
	c-14.7,0-27.5-5.4-38.5-16.3c-3.5-3.5-6.4-7.2-8.7-11.2h-69.7C687.2,274.5,691.7,285.1,697.9,295.1z"/>
<g>
	<path class="st1" d="M1047.4,277.1c-7.7,4.7-15.8,7.1-24.2,7.1c-19.4,0-35.4-7-47.8-21h-5.2l-37.8,53.9c12.4,12,26.8,21,43.2,26.9
		c16.3,6,33.1,9,50.5,9c30.1,0,54.8-8.8,74.2-26.3c17.2-15.3,26.8-36.5,28.9-63.6H1058C1056.6,269,1053.1,273.7,1047.4,277.1z"/>
	<path class="st1" d="M1113,194.1c-11.1-13-24.2-22.5-39.4-28.4c-15-5.7-29.6-11.6-43.8-17.8c-14-6-21-14.1-21-24.4
		c0-7.3,3.2-13.1,9.6-17.5c6.1-4.4,12.7-6.6,19.7-6.6c9.4,0,17.7,1.9,24.8,5.6c6.7,3.4,14.5,9.3,23.3,17.8l36.6-52.2
		c-11.5-11.1-25-19.8-40.4-26.1c-15.1-6-30.5-9-46.2-9c-17,0-32.9,3.7-47.7,11.1C973.3,54.1,961.1,64.9,952,79
		c-9.4,14.3-14.1,30.9-14.1,50c0,25,5.4,43.7,16.3,56.2c10.8,12.7,23.9,22.2,39.1,28.4l11.3,4.7l11.1,4.5c8.3,3.4,15.5,6.5,21.8,9.2
		c6.7,2.9,11.8,6.3,15.4,10.2h76.3C1128,221.6,1122.6,205.5,1113,194.1z"/>
	<path class="st1" d="M1380.4,239.2c0.1-0.9,0.2-1.6,0.2-2.4V235c0-16.4-3.2-31.8-9.6-46.2c-6.4-14.5-15.3-27-26.5-37.4
		c-11.4-10.7-24.3-18.8-38.7-24.4c-14.5-5.7-29.7-8.6-45.3-8.6c-15.7,0-30.9,2.9-45.6,8.6c-14.3,5.6-27.1,13.8-38.5,24.6
		c-11.3,10.6-20.1,23-26.5,37.2c-6.4,14.1-9.6,29.5-9.6,46.2c0,2.5,0.1,5,0.2,7.4H1380L1380.4,239.2z M1218.5,200.7
		c4.8-5.7,9.8-10.1,15-13.3c8.4-4.8,17.4-7.3,26.9-7.3c9.6,0,18.5,2.4,26.9,7.3c5.1,3.1,10.1,7.6,15,13.3H1218.5z"/>
	<path class="st1" d="M1156.9,295.1c10.8,17.8,25.6,31.9,44.3,42.1c18.2,10.1,38,15.2,59.2,15.2c15.7,0,30.8-2.9,45.3-8.6
		c10.8-4.4,21.5-10.9,32.1-19.5l-36.8-52.6l-0.4,0.6l-0.6,0.6l-0.6,0.9l-0.4,0.4c-10.8,10.8-23.7,16.3-38.5,16.3
		c-14.7,0-27.5-5.4-38.5-16.3c-3.5-3.5-6.4-7.2-8.7-11.2h-69.7C1146.2,274.5,1150.7,285.1,1156.9,295.1z"/>
	<rect x="1391.3" y="263.1" class="st1" width="68.4" height="82.8"/>
	<path class="st1" d="M1459.7,216.3c0-23.5,8.7-35.6,26.1-36.4h3.8c5.7,0.3,10.3,1.6,13.9,4.1v-64.6c-4.6-0.7-9.2-1.1-13.9-1.3h-3.8
		c-63,3.1-94.5,35.9-94.5,98.2v26.1h68.4V216.3z"/>
	<polygon class="st1" points="1625.4,354.9 1671.9,263.1 1580.5,263.1 	"/>
	<polygon class="st1" points="1740.7,127.2 1668.2,127.2 1626.3,224.3 1583.7,127.2 1514.2,127.6 1570.4,242.4 1682.4,242.4 	"/>
	<path class="st1" d="M1769.2,96.4c5.3,3.1,11.2,4.7,17.8,4.7c6.6,0,12.5-1.6,18-4.9c5.4-3.3,9.7-7.6,12.8-12.8
		c3.1-5.3,4.7-11.3,4.7-18.2c0-6.6-1.6-12.5-4.7-18c-3.3-5.6-7.6-9.9-12.8-13c-5.4-3.1-11.4-4.7-18-4.7c-6.6,0-12.5,1.6-17.8,4.7
		c-5.3,3.1-9.6,7.5-13,13c-3.1,5.4-4.7,11.4-4.7,18c0,6.4,1.6,12.5,4.9,18.2C1759.5,88.7,1763.7,93.1,1769.2,96.4z"/>
	<polygon class="st1" points="1822.2,127.2 1754,127.4 1754,242.4 1822.2,242.4 	"/>
	<rect x="1754" y="263.1" class="st1" width="68.2" height="83.2"/>
	<path class="st1" d="M1848.3,294.8c10.1,17.1,24.7,30.9,43.6,41.5c19,10.4,40.8,15.6,65.7,15.6c8.8,0,18.5-1.1,28.9-3.2
		c10.4-2.1,20.5-5.4,30.4-9.8c9.7-4.4,17.3-9.5,22.7-15.2l-37.4-47.5c-12,10.7-26.4,16-43.2,16c-11.4,0-21.5-2.8-30.2-8.3
		c-8.6-5.2-15.1-12.1-19.7-20.8h-73.3C1838.2,274.1,1842.4,284.7,1848.3,294.8z"/>
	<path class="st1" d="M1901.3,230.5c0-15,5.5-27.5,16.5-37.6c10.8-10.1,24.1-15.2,39.8-15.2c8.4,0,16.4,1.3,24,3.8
		c7.3,2.6,14,6.4,20.1,11.5l35.5-48.3c-10.7-8.6-23-15.2-37-19.9c-13.8-4.6-28-6.8-42.6-6.8c-17.8,0-34.4,2.9-49.8,8.8
		c-15.5,6-28.7,14.2-39.6,24.6c-11,10.7-19.6,23.5-25.9,38.5c-6.1,14.7-9.2,31.1-9.2,49.2c0,1.1,0,2.3,0.1,3.4h69.1
		C1901.6,238.6,1901.3,234.6,1901.3,230.5z"/>
	<path class="st1" d="M2042.9,295.1c10.8,17.8,25.6,31.9,44.3,42.1c18.2,10.1,38,15.2,59.2,15.2c15.7,0,30.8-2.9,45.3-8.6
		c10.8-4.4,21.5-10.9,32.1-19.5l-36.8-52.6l-0.4,0.6l-0.6,0.6l-0.6,0.9l-0.4,0.4c-10.8,10.8-23.7,16.3-38.5,16.3
		c-14.7,0-27.5-5.4-38.5-16.3c-3.5-3.5-6.4-7.2-8.7-11.2h-69.7C2032.2,274.5,2036.7,285.1,2042.9,295.1z"/>
	<path class="st1" d="M2266.4,239.2c0.1-0.9,0.2-1.6,0.2-2.4V235c0-16.4-3.2-31.8-9.6-46.2c-6.4-14.5-15.3-27-26.5-37.4
		c-11.4-10.7-24.3-18.8-38.7-24.4c-14.5-5.7-29.7-8.6-45.3-8.6c-15.7,0-30.9,2.9-45.6,8.6c-14.3,5.6-27.1,13.8-38.5,24.6
		c-11.3,10.6-20.1,23-26.5,37.2c-6.4,14.1-9.6,29.5-9.6,46.2c0,2.5,0.1,5,0.2,7.4H2266L2266.4,239.2z M2104.5,200.7
		c4.8-5.7,9.8-10.1,15-13.3c8.4-4.8,17.4-7.3,26.9-7.3c9.6,0,18.5,2.4,26.9,7.3c5.1,3.1,10.1,7.6,15,13.3H2104.5z"/>
	<path class="st1" d="M2441.3,232.8c-9.4-9.6-21.2-16.1-35.3-19.7c-12.8-3-25.6-6.2-38.3-9.6c-11.5-3.1-17.3-8.6-17.3-16.5
		c0-8.7,7.8-13,23.3-13c13,0,24.9,4.1,35.9,12.4l37.6-37.4c-6.4-5.8-13.8-11.1-22.2-15.8c-7.7-4.4-16.4-8.1-26.1-11.1
		c-9-2.4-17.8-3.6-26.5-3.6c-15.4,0-29.6,2.6-42.6,7.9c-12.7,5.1-23,13.1-31,24c-7.8,10.8-11.8,24.1-11.8,39.8
		c0,20.4,4.8,35.5,14.3,45.3c2.5,2.5,5.1,4.9,7.8,7h139C2446.4,238.8,2444,235.6,2441.3,232.8z"/>
	<path class="st1" d="M2375.3,265.5c11.3,3,16.9,7.6,16.9,13.9c0,12-10.2,18-30.6,18c-19.5,0-36.1-6.8-49.6-20.3l-34.6,45.8
		c9.8,7.4,19.2,13.3,28.2,17.8c8.7,4.4,18,7.6,28,9.4c10,2,21.2,3,33.6,3c14.8,0,29.2-2.9,43-8.8c13.8-5.6,24.9-14,33.1-25.5
		c8.3-11.3,12.4-24.7,12.4-40.2c0-5.5-0.4-10.7-1-15.4h-89.3C2369.2,264.1,2372.5,264.9,2375.3,265.5z"/>
</g>
<path d="M972.5,259.8l-2.4,3.4h5.2C974.4,262.1,973.4,260.9,972.5,259.8z"/>
</svg>
